<?xml version="1.0" encoding="UTF-8"?>
<svg xmlns="http://www.w3.org/2000/svg" xmlns:xlink="http://www.w3.org/1999/xlink" viewBox="0 0 24 24" width="24px" height="24px">
<g id="surface2148200">
<path style=" stroke:none;fill-rule:nonzero;fill:rgb(100%,100%,100%);fill-opacity:1;" d="M 20.457031 5.410156 C 20.105469 5.410156 19.769531 5.453125 19.449219 5.546875 C 19.128906 5.644531 18.859375 5.78125 18.621094 5.964844 C 18.378906 6.140625 18.1875 6.363281 18.042969 6.621094 C 17.902344 6.875 17.828125 7.171875 17.828125 7.507812 C 17.828125 7.921875 17.964844 8.3125 18.226562 8.664062 C 18.488281 9.019531 18.921875 9.292969 19.503906 9.476562 L 20.660156 9.835938 C 21.050781 9.964844 21.324219 10.097656 21.46875 10.25 C 21.609375 10.402344 21.683594 10.585938 21.683594 10.808594 C 21.683594 11.136719 21.539062 11.390625 21.269531 11.566406 C 20.996094 11.742188 20.605469 11.832031 20.101562 11.832031 C 19.78125 11.832031 19.472656 11.796875 19.152344 11.734375 C 18.839844 11.671875 18.542969 11.574219 18.273438 11.457031 C 18.195312 11.421875 18.121094 11.390625 18.074219 11.375 C 18.027344 11.359375 17.976562 11.351562 17.929688 11.351562 C 17.808594 11.351562 17.746094 11.429688 17.746094 11.597656 L 17.746094 12.007812 C 17.746094 12.078125 17.761719 12.15625 17.792969 12.230469 C 17.828125 12.304688 17.914062 12.382812 18.042969 12.453125 C 18.25 12.574219 18.5625 12.675781 18.960938 12.773438 C 19.359375 12.871094 19.773438 12.917969 20.1875 12.917969 C 20.597656 12.917969 20.972656 12.859375 21.332031 12.75 C 21.671875 12.644531 21.96875 12.503906 22.21875 12.304688 C 22.464844 12.109375 22.65625 11.871094 22.796875 11.601562 C 22.933594 11.328125 23.007812 11.015625 23.007812 10.675781 C 23.007812 10.257812 22.886719 9.882812 22.640625 9.558594 C 22.394531 9.230469 21.976562 8.972656 21.402344 8.792969 L 20.269531 8.433594 C 19.847656 8.296875 19.550781 8.144531 19.390625 7.992188 C 19.234375 7.839844 19.152344 7.648438 19.152344 7.425781 C 19.152344 7.097656 19.28125 6.867188 19.527344 6.71875 C 19.773438 6.566406 20.136719 6.492188 20.589844 6.492188 C 21.15625 6.492188 21.667969 6.597656 22.121094 6.804688 C 22.257812 6.867188 22.363281 6.902344 22.425781 6.902344 C 22.546875 6.902344 22.609375 6.8125 22.609375 6.644531 L 22.609375 6.269531 C 22.609375 6.15625 22.585938 6.070312 22.535156 6.007812 C 22.488281 5.933594 22.410156 5.867188 22.296875 5.804688 C 22.21875 5.757812 22.109375 5.707031 21.964844 5.660156 C 21.820312 5.613281 21.667969 5.574219 21.507812 5.535156 C 21.339844 5.5 21.175781 5.46875 20.988281 5.445312 C 20.8125 5.421875 20.632812 5.414062 20.453125 5.414062 Z M 3.992188 5.429688 C 3.554688 5.429688 3.140625 5.476562 2.746094 5.582031 C 2.355469 5.675781 2.019531 5.796875 1.742188 5.941406 C 1.628906 5.996094 1.558594 6.050781 1.519531 6.109375 C 1.480469 6.164062 1.464844 6.261719 1.464844 6.390625 L 1.464844 6.78125 C 1.464844 6.949219 1.519531 7.027344 1.632812 7.027344 C 1.664062 7.027344 1.703125 7.019531 1.761719 7.003906 C 1.816406 6.984375 1.910156 6.953125 2.039062 6.898438 C 2.316406 6.785156 2.605469 6.699219 2.902344 6.628906 C 3.195312 6.558594 3.484375 6.523438 3.761719 6.523438 C 4.375 6.523438 4.808594 6.644531 5.0625 6.890625 C 5.308594 7.136719 5.4375 7.5625 5.4375 8.167969 L 5.4375 8.753906 C 5.117188 8.679688 4.816406 8.613281 4.519531 8.574219 C 4.222656 8.535156 3.945312 8.511719 3.675781 8.511719 C 2.851562 8.511719 2.207031 8.71875 1.71875 9.136719 C 1.234375 9.550781 0.992188 10.097656 0.992188 10.777344 C 0.992188 11.417969 1.191406 11.925781 1.582031 12.3125 C 1.972656 12.695312 2.507812 12.886719 3.179688 12.886719 C 4.121094 12.886719 4.902344 12.519531 5.527344 11.785156 C 5.613281 11.96875 5.695312 12.121094 5.773438 12.257812 C 5.851562 12.382812 5.949219 12.511719 6.0625 12.632812 C 6.140625 12.703125 6.21875 12.742188 6.300781 12.742188 C 6.363281 12.742188 6.4375 12.71875 6.507812 12.671875 L 7.011719 12.335938 C 7.113281 12.257812 7.164062 12.175781 7.164062 12.097656 C 7.164062 12.039062 7.144531 11.976562 7.105469 11.914062 C 6.992188 11.703125 6.914062 11.515625 6.851562 11.339844 C 6.796875 11.160156 6.765625 10.921875 6.765625 10.625 L 6.746094 10.625 L 6.746094 8.039062 C 6.746094 7.160156 6.523438 6.507812 6.085938 6.078125 C 5.636719 5.644531 4.945312 5.429688 3.996094 5.429688 Z M 7.707031 5.621094 C 7.578125 5.621094 7.515625 5.695312 7.515625 5.824219 C 7.515625 5.878906 7.539062 5.980469 7.585938 6.140625 L 9.460938 12.3125 C 9.507812 12.460938 9.566406 12.574219 9.628906 12.621094 C 9.691406 12.675781 9.789062 12.703125 9.933594 12.703125 L 10.617188 12.703125 C 10.761719 12.703125 10.875 12.675781 10.9375 12.621094 C 11 12.566406 11.050781 12.460938 11.089844 12.304688 L 12.320312 7.164062 L 13.554688 12.3125 C 13.585938 12.46875 13.644531 12.574219 13.707031 12.632812 C 13.769531 12.6875 13.875 12.710938 14.027344 12.710938 L 14.714844 12.710938 C 14.847656 12.710938 14.953125 12.679688 15.015625 12.632812 C 15.078125 12.582031 15.136719 12.476562 15.183594 12.320312 L 17.109375 6.148438 C 17.140625 6.058594 17.152344 5.996094 17.164062 5.949219 C 17.171875 5.902344 17.179688 5.859375 17.179688 5.820312 C 17.179688 5.683594 17.105469 5.621094 16.980469 5.621094 L 16.238281 5.621094 C 16.09375 5.621094 15.988281 5.652344 15.925781 5.703125 C 15.871094 5.75 15.8125 5.851562 15.765625 6.011719 L 14.386719 11.359375 L 13.125 6.011719 C 13.089844 5.859375 13.035156 5.75 12.972656 5.703125 C 12.910156 5.644531 12.804688 5.621094 12.652344 5.621094 L 12.015625 5.621094 C 11.871094 5.621094 11.757812 5.652344 11.695312 5.703125 C 11.632812 5.75 11.582031 5.851562 11.542969 6.011719 L 10.300781 11.296875 L 8.960938 6.015625 C 8.910156 5.863281 8.863281 5.75 8.800781 5.703125 C 8.742188 5.644531 8.640625 5.621094 8.488281 5.621094 Z M 3.972656 9.460938 C 4.21875 9.460938 4.464844 9.476562 4.722656 9.507812 C 4.976562 9.542969 5.222656 9.589844 5.453125 9.644531 L 5.453125 9.980469 C 5.453125 10.25 5.421875 10.484375 5.375 10.671875 C 5.324219 10.867188 5.230469 11.035156 5.105469 11.183594 C 4.886719 11.425781 4.632812 11.597656 4.347656 11.695312 C 4.058594 11.792969 3.785156 11.839844 3.523438 11.839844 C 3.15625 11.839844 2.875 11.742188 2.6875 11.542969 C 2.484375 11.351562 2.390625 11.074219 2.390625 10.699219 C 2.390625 10.300781 2.519531 9.996094 2.78125 9.78125 C 3.042969 9.566406 3.4375 9.460938 3.972656 9.460938 Z M 22.234375 14.359375 C 21.394531 14.375 20.402344 14.5625 19.652344 15.085938 C 19.421875 15.257812 19.460938 15.480469 19.71875 15.445312 C 20.574219 15.34375 22.457031 15.121094 22.792969 15.550781 C 23.128906 15.972656 22.417969 17.753906 22.097656 18.542969 C 22 18.785156 22.210938 18.878906 22.425781 18.695312 C 23.828125 17.515625 24.195312 15.046875 23.90625 14.6875 C 23.765625 14.515625 23.078125 14.347656 22.234375 14.359375 Z M 0.175781 14.839844 C 0 14.859375 -0.078125 15.074219 0.109375 15.242188 C 3.238281 18.066406 7.378906 19.765625 11.976562 19.765625 C 15.257812 19.765625 19.070312 18.734375 21.699219 16.796875 C 22.128906 16.476562 21.753906 15.988281 21.316406 16.191406 C 18.371094 17.433594 15.167969 18.042969 12.257812 18.042969 C 7.9375 18.042969 3.761719 16.851562 0.378906 14.890625 C 0.304688 14.84375 0.234375 14.832031 0.175781 14.839844 Z M 0.175781 14.839844 "/>
</g>
</svg>
